<svg viewBox="0 0 340 340" xmlns="http://www.w3.org/2000/svg"><path d="m131.914 212.069a3.46 3.46 0 1 0 4.876.408 3.46 3.46 0 0 0 -4.876-.408z" fill="#000000" style="fill: rgb(255, 255, 255);"></path><path d="m131.709 236.14 4.88-4.126c.435 11.295 2.175 30.322 8.488 48.678a13.564 13.564 0 0 0 12.81 9.124 207.688 207.688 0 0 0 26.97-7.193 10.4 10.4 0 0 0 5.737-14.482l-1.318-2.587a15.408 15.408 0 0 1 -1.524-9.254l.7-4.8c.864-5.938-.412-11.961-5.31-18.2 7.841 1.848 13.726 1.642 16.82-.953l11.514-9.736a12.079 12.079 0 0 0 2.593-15.351 97.477 97.477 0 0 1 -7.6-15.723c-1.235-3.522 2.786-6.067 2.786-6.067 9.547 6.97 47.679 32.753 102.486 45.207 8.454 1.921 11.075-4.922 11.611-7.49l3.886-18.622a9.757 9.757 0 0 0 -7.384-11.45c-46.4-10.473-86.69-34.016-108.438-56.338l4.442-3.755s13.93 14.1 26.789.21l49.953-60.876a11.214 11.214 0 0 0 1.823-11.069l7.091-6a8.371 8.371 0 0 0 2.927-7.16l14.716-12.442c.709-.6 2.465-2.9.413-4.933l-7.838-9.272a3.5 3.5 0 0 0 -4.933-.413l-14.713 12.44a4.612 4.612 0 0 0 -4.379.028l-7.894-9.335a11.026 11.026 0 0 0 -2.645-7.531l-5.568-6.304a11.071 11.071 0 0 0 -15.584-1.3l-1.372 1.159a11.087 11.087 0 0 0 -1.256 15.642l5.571 6.307a10.952 10.952 0 0 0 3.222 2.59l-117.111 99.005-27.211 2.537c-9.32 1.116-9.36 11.052-9.36 11.052l-9.707 8.208a8.808 8.808 0 0 0 -1.04 12.415l2.857 3.379-3.731 3.154-6.242 5.278a16.459 16.459 0 0 0 -5.829 12.234l-.287 14.211a19.518 19.518 0 0 0 3.025 10.809l-34.136 28.861a13.1 13.1 0 0 0 -10.006.531l-22.503 10.763a12.723 12.723 0 0 0 -7.022 9.247l-.837 4.75a12.676 12.676 0 0 0 1.446 8.388l-1.349 3.169a7.13 7.13 0 0 0 2.192 8.446c6.973 5.4 20.579 17.414 28.889 34.419a7.15 7.15 0 0 0 7.87 3.881l3.079-.637c.765 1.57 1.17 2.5 1.191 2.554a3.5 3.5 0 0 0 3.221 2.132c.19 0 6.8-1.082 6.8-1.082a12.955 12.955 0 0 0 8.906-5.98 12.668 12.668 0 0 0 1.34-10.4c-2.2-7.115-6.619-14.876-13.125-23.068a15.385 15.385 0 0 1 1.513-20.863 10.463 10.463 0 0 0 3.089-9.54l34.161-28.882a19.466 19.466 0 0 0 11.1 3.458c.091 0 16.133-.219 16.133-.219a3.246 3.246 0 0 0 2.212-.833zm184.785-14.383a2.736 2.736 0 0 1 -3.221 2.092 289.478 289.478 0 0 1 -67.43-24.562l1.684-7.717c18.644 9.195 43.609 19.377 70.213 24.215zm-81.658-55.464c19.145 12.5 43.719 24.679 83.47 33.651a2.726 2.726 0 0 1 2.074 3.192l-1.209 5.793c-36.587-6.628-70.793-24.175-88.154-34.2zm-90.636 50.116-14.342 12.126-7.622-9.015a5.615 5.615 0 0 1 .663-7.912l14.342-12.126 7.622 9.014a5.616 5.616 0 0 1 -.663 7.913zm-10.864-22.789-2.366 2-4.165-6.247c-4.568-7.165 4.931-15.789 6.522-17.158l58.709-49.637 10.352 12.661-26.888 22.736zm38.2 76.539-9.475 2a5.109 5.109 0 0 1 -6.012-3.789 169.722 169.722 0 0 1 -4.208-29.942 5.094 5.094 0 0 1 4.414-5.344l8.584-1.159a5.107 5.107 0 0 1 5.77 4.645 159.943 159.943 0 0 0 4.805 27.292 5.1 5.1 0 0 1 -3.881 6.297zm-1.765-70.333a17.781 17.781 0 0 1 -2.653.2 15.282 15.282 0 0 1 -10.752-4.211 2.859 2.859 0 0 1 -.074-3.818 16.049 16.049 0 0 1 12.443-5.846 6.877 6.877 0 0 1 1.035 13.672zm38.255 10.967a5.092 5.092 0 0 1 -1.069 6.474l-10.957 9.26a25.612 25.612 0 0 1 -8.388.675 7.859 7.859 0 0 1 -7-6.144l-.03-6.4a10.6 10.6 0 0 1 .539-3.383 20.676 20.676 0 0 0 13.313 10.052 3.6 3.6 0 0 0 4.249-2.539 3.5 3.5 0 0 0 -2.54-4.249 13.713 13.713 0 0 1 -9.057-6.933 3.344 3.344 0 0 1 .85-4.121l11.8-9.978a87.161 87.161 0 0 0 8.287 17.286zm.111-34.606-24.519-15.909 22.448-18.978q1.052 1.2 2.114 2.361c-2.553 3.19-4.92 7.666-4.489 13.045.4 4.974 3.144 9.663 8.151 13.966zm4.948-27.415c3.308 3.312 6.288 6.04 8.247 7.777l-5.545 8.252c-7.052-5.701-5.714-12.801-2.705-16.029zm75.969-108.218a1.4 1.4 0 0 1 1.945.164l4.145 4.9-5.031 4.921a2.794 2.794 0 0 1 -4.089-.193l-3.566-4.218zm-6.917 16.038a4.736 4.736 0 0 1 0 6.456l-47.065 55.376c-7.042 6.023-10.882 1.465-10.882 1.465l-5.9-7.261c-5.894-7.254 3.645-15.328 3.662-15.343l55.16-46.636zm-23.455-35.307a4.063 4.063 0 0 1 .479-5.72l1.371-1.16a4.727 4.727 0 0 1 5.769.536l5.571 6.307a4.088 4.088 0 0 1 -.479 5.719l-1.371 1.16a4.083 4.083 0 0 1 -5.769-.535zm8.89 18.079 5.021 5.94-142.058 120.1a7.426 7.426 0 0 1 -6 1.661 11.393 11.393 0 0 1 -5.363-2.241zm-149.063 103.91 17.215-1.6-20.118 17.009-.113-12.062a3.345 3.345 0 0 1 3.016-3.347zm-26.7 48.894a9.463 9.463 0 0 1 3.349-7.032l3.57-3.018 12.691 15.012s6.515 11.214-12.1 23.317l-4.836-5.72a12.532 12.532 0 0 1 -2.961-8.35zm-71.87 80.248.837-4.749a5.7 5.7 0 0 1 3.15-4.148l22.5-10.767a6.649 6.649 0 0 1 7.308 1.567l6.742 7.975a3.477 3.477 0 0 1 -.266 4.77 22.342 22.342 0 0 0 -2.185 30.3c5.963 7.51 9.974 14.5 11.92 20.785a5.6 5.6 0 0 1 -.611 4.659 5.962 5.962 0 0 1 -4.1 2.751l-3.586.6c-3.779-7.922-16.745-32.388-39.3-48.043a5.756 5.756 0 0 1 -2.412-5.7z" fill="#000000" style="fill: rgb(255, 255, 255);"></path></svg>