<?xml version="1.0" encoding="UTF-8"?>
<svg xmlns="http://www.w3.org/2000/svg" version="1.1" xmlns:serif="http://www.serif.com/" viewBox="0 0 1920 1080">
<style> .st0 { fill: #fff; } .st1 { fill: none; } .st2 { fill: #1f1f1f; stroke: #600; stroke-miterlimit: 10; stroke-width: 20px; } .st3 { fill: #323232;} </style>
  <g id="type">
    <rect class="st1" x="2.4" y="110.3" width="1917.5" height="857.3"/>
    <g>
      <path class="st3" d="M655.7,141.6c-40.1.4-57.2,28.2-57.2,68.7,0,76.7,106.5,74.3,106.5,144.6s-13.1,60.4-49.7,60.4-49.7-26.6-49.7-60.4v-13.9h-8.3v13.5c0,38.5,15.9,69.1,58,69.1s58.4-30.6,58.4-69.1c0-75.5-106.5-73.5-106.5-144.6s12.3-60.4,48.9-60.4,48.5,27.8,48.5,60.8v5.6h8.7v-5.2c0-38.1-15.5-69.1-57.6-69.1Z"/>
      <path class="st3" d="M805.5,421.7V151.9h60.8v-8.3h-129.9v8.3h60.4v269.7h8.7Z"/>
      <path class="st3" d="M997.3,356.1l16.3,65.5h8.7l-68.7-278.5h-12.3l-67.1,278.5h7.9l16.3-65.5h98.9ZM947.3,153.5l48.5,194.6h-95.7l47.3-194.6Z"/>
      <path class="st3" d="M1098.6,421.7V151.9h60.8v-8.3h-129.9v8.3h60.4v269.7h8.7Z"/>
      <rect class="st3" x="1183.6" y="143.6" width="8.7" height="278.1"/>
      <path class="st3" d="M1223.8,353.3c0,38.9,16.7,70.3,58.8,70.3s59.6-31.4,59.6-70.3v-141.4c0-38.9-16.7-70.3-59.6-70.3s-58.8,31.4-58.8,70.3v141.4ZM1232.5,211.5c0-34.2,13.1-62,50.1-62s50.8,27.8,50.8,62v142.2c0,34.2-13.5,62-50.8,62s-50.1-27.8-50.1-62v-142.2Z"/>
      <path class="st3" d="M1381.9,156.3l99.3,265.4h10.7V143.6h-8.3v260.2l-97.7-260.2h-12.3v278.1h8.3V156.3Z"/>
      <line class="st2" x1="585.6" y1="410.1" x2="1529" y2="192.1"/>
      <g>
        <path class="st0" d="M606.8,353v-21.4h17.8v20.6c0,15.8,3.3,27.2,9.8,34.2,6.5,7,15.8,10.5,27.9,10.5s21.2-3.5,27.5-10.6c6.3-7.1,9.4-19.4,9.4-37s-2.7-27.8-8.2-36c-5.4-8.2-16.4-17.6-32.8-28.1-16.3-11-28.4-21.7-36.5-32-8-10.3-12-24.7-12-43.2s4.5-35.2,13.6-44.6c9.1-9.5,21.8-14.2,38.2-14.2s29.2,5,38.3,14.9c9.1,10,13.7,23.9,13.7,41.8v21.4h-17.9v-20.6c0-13.2-2.8-23.4-8.3-30.5-5.6-7.1-14.1-10.6-25.6-10.6s-20.4,3-25.8,9.1c-5.3,6.1-8,16.8-8,32.2s2.8,24.6,8.4,32.6c5.6,8,16.5,17.1,32.7,27.2,16.1,10.5,28.1,21.4,36,32.6,8,11.2,12,26.9,12,47s-4.8,39.6-14.5,49.7-23.1,15.3-40.3,15.3-30.3-4.8-40.3-14.5-15-24.9-15-45.6Z"/>
        <path class="st0" d="M745.3,409.8v-255.6h18.1v115.3h80.9v-115.3h17.9v255.6h-17.9v-124.1h-80.9v124.1h-18.1Z"/>
        <path class="st0" d="M902.6,409.8v-255.6h17.8v255.6h-17.8Z"/>
        <path class="st0" d="M960.6,409.8v-255.6h47.3c18.9,0,32.8,5.9,41.9,17.8,9.1,11.9,13.6,30.6,13.6,56.2s-4.6,44.9-13.8,56.9c-9.2,12-22.8,18-40.7,18h-30.2v106.7h-18.1ZM978.8,286.9h29.5c13.5,0,23-4.6,28.7-13.7s8.4-24.1,8.4-45-2.8-34.4-8.3-43.7c-5.5-9.3-15.1-14-28.8-14.2h-29.5v116.5Z"/>
        <path class="st0" d="M1073,170.4v-16.2h121.3v16.2h-51.9v239.4h-17.9v-239.4h-51.5Z"/>
        <path class="st0" d="M1216.2,409.8v-255.6h94.2v16.2h-76.3v99.1h64.5v16h-64.5v108.3h78.2v16h-96.2Z"/>
        <path class="st0" d="M1327,353v-21.4h17.8v20.6c0,15.8,3.3,27.2,9.8,34.2,6.5,7,15.8,10.5,27.9,10.5s21.2-3.5,27.5-10.6c6.3-7.1,9.4-19.4,9.4-37s-2.7-27.8-8.2-36c-5.4-8.2-16.4-17.6-32.8-28.1-16.3-11-28.4-21.7-36.5-32-8-10.3-12-24.7-12-43.2s4.5-35.2,13.6-44.6c9.1-9.5,21.8-14.2,38.2-14.2s29.2,5,38.3,14.9c9.1,10,13.7,23.9,13.7,41.8v21.4h-17.9v-20.6c0-13.2-2.8-23.4-8.3-30.5-5.6-7.1-14.1-10.6-25.6-10.6s-20.4,3-25.8,9.1c-5.3,6.1-8,16.8-8,32.2s2.8,24.6,8.4,32.6c5.6,8,16.5,17.1,32.7,27.2,16.1,10.5,28.1,21.4,36,32.6,8,11.2,12,26.9,12,47s-4.8,39.6-14.5,49.7-23.1,15.3-40.3,15.3-30.3-4.8-40.3-14.5-15-24.9-15-45.6Z"/>
        <path class="st0" d="M1448.1,170.4v-16.2h121.3v16.2h-51.9v239.4h-17.9v-239.4h-51.5Z"/>
      </g>
    </g>
    <g>
      <path class="st0" d="M197.9,183.3h45.7v238.3h43.7v-238.3h45.7v-39.7h-135.1v39.7Z"/>
      <path class="st0" d="M417.5,306.5h19.9v51.2c0,19.9-8.7,27-22.6,27s-22.6-7.2-22.6-27v-150.2c0-19.9,8.7-27.4,22.6-27.4s22.6,7.5,22.6,27.4v29.8h41.3v-27c0-44.5-22.2-69.9-65.1-69.9s-65.1,25.4-65.1,69.9v144.6c0,44.5,22.2,69.9,65.1,69.9s65.1-25.4,65.1-69.9v-88.2h-61.2v39.7Z"/>
      <g>
        <path class="st0" d="M89.6,438.1l79.7-302.5h19.5l-80.1,302.5h-19.1Z"/>
        <path class="st0" d="M485.6,438.1l79.7-302.5h19.5l-80.1,302.5h-19.1Z"/>
      </g>
    </g>
    <g>
      <path class="st0" d="M144.8,763.2h66.2v158.9h59.3v-370.8h-59.3v158.9h-66.2v-158.9h-58.3v370.8h58.3v-158.9Z"/>
      <path class="st0" d="M441.9,551.4h-85.3l-59.3,370.8h53.5l10.1-67.3h71.5l10.1,67.3h58.8l-59.3-370.8ZM396.3,617l28.1,187.5h-56.1l28.1-187.5Z"/>
      <path class="st0" d="M652.7,922.1h59.9v-370.8h-51.9v221.9l-59.9-221.9h-73.1v370.8h52.4v-268.5l72.6,268.5Z"/>
      <path class="st0" d="M754.4,922.1h92.2c58.3,0,86.9-32.3,86.9-91.6v-187.5c0-59.3-28.6-91.6-86.9-91.6h-92.2v370.8ZM845.5,604.3c18.5,0,29.7,9.5,29.7,36v192.8c0,26.5-11.1,36-29.7,36h-32.8v-264.8h32.8Z"/>
      <path class="st0" d="M1058.4,551.4h-87.9v370.8h91.6c58.3,0,88.5-30.7,88.5-87.9v-30.2c0-39.2-12.2-67.3-43.4-79.4,26-12.2,37.6-36.5,37.6-74.7v-13.2c0-57.2-26-85.3-86.3-85.3h0ZM1054.7,755.3c26.5,0,37.6,10.6,37.6,45v32.3c0,27.5-10.6,36.5-30.2,36.5h-33.4v-113.9h26ZM1056.8,604.3c20.7,0,29.7,11.7,29.7,38.1v20.7c0,29.7-13.2,39.2-35,39.2h-22.8v-98h28.1Z"/>
      <path class="st0" d="M1239,636.6c0-26.5,11.7-36.5,30.2-36.5s30.2,10.1,30.2,36.5v200.2c0,26.5-11.7,36.5-30.2,36.5s-30.2-10.1-30.2-36.5v-200.2ZM1180.8,833.1c0,59.3,31.2,93.2,88.5,93.2s88.5-33.9,88.5-93.2v-192.8c0-59.3-31.2-93.2-88.5-93.2s-88.5,33.9-88.5,93.2v192.8Z"/>
      <path class="st0" d="M1448.8,636.6c0-26.5,11.7-36.5,30.2-36.5s30.2,10.1,30.2,36.5v200.2c0,26.5-11.7,36.5-30.2,36.5s-30.2-10.1-30.2-36.5v-200.2ZM1390.5,833.1c0,59.3,31.2,93.2,88.5,93.2s88.5-33.9,88.5-93.2v-192.8c0-59.3-31.2-93.2-88.5-93.2s-88.5,33.9-88.5,93.2v192.8Z"/>
      <path class="st0" d="M1737.9,922.1h59.9l-81-205.5,81-165.3h-58.3l-76.3,161.5v-161.5h-58.3v370.8h58.3v-113.9l18-33.9,56.7,147.8Z"/>
    </g>
  </g>
</svg>