<?xml version="1.0" encoding="UTF-8"?>
<svg id="_Слой_2" data-name="Слой 2" xmlns="http://www.w3.org/2000/svg" viewBox="0 0 433.91 433.91" opacity="0.1">
  <defs><style>.cls-1 {fill: #fff;}</style></defs>
  <path class="cls-1" d="M183.15,350.74c-.27.04-.5.07-.7.09.19-.02.43-.05.7-.09Z"/>
  <path class="cls-1" d="M100.54,262.84l8.05-1.43c14.62-5.18,22.34-18.28,15.15-33.27-.98-2.04-3.36-2.91-3.2-5.29,11.95,2.27,17.73,16.2,14.69,27.2-4.3,15.58-21.09,19.57-34.69,12.78Z"/>
  <path class="cls-1" d="M214.12,318.04c3.3-3.39,3.61-7.56,3.66-8.28.11-1.91-.07-3.53-.84-5.24-.61-1.34-1.55-2.6-2.87-3.7-1.67-1.31,1.03-1.1,1.77-.8,2.41,1,5.91,3.3,7.09,6.92,2.17,6.67-1.98,12.81-5.41,14.69-3.88,2.12-7.46,2.17-9.88,1.31-1.73-.62-1.98-1.25-1.92-1.48.14-.54,2.36.04,4.8-.85,1.72-.63,2.76-1.71,3.61-2.58Z"/>
  <path class="cls-1" d="M113.53,166.86c5.61,1.62,11.62-3.73,12.83-8.78.41-1.72-.38-5.44-.38-5.44.79.61,2.7,2.25,3.33,4.98.91,3.9-1.3,7.92-4.5,9.89-3.41,2.1-7.89,1.85-11.28-.64Z"/>
  <path class="cls-1" d="M340.51,297.89c-1.43,2.35-3.55,5.63-6.31,9.39-18.19,24.73-40.19,37.07-49.82,42.33,0,0-23.27,12.73-52.48,18.16-5.35.99-14.42,2.24-21.59,2.72-3.15.21-6.2.33-9.15.38-1.95.04-3.84.04-5.63-.01-9.5-.27-24.95-4.3-34.21-7.29C56.38,329.71,20.68,197.72,94.01,114.84c13.95-15.76,31.95-28.72,51.87-37.79,14.34-6.52,29.67-11.02,45.19-13.1,12.46-1.67,22.37-1.32,26.86-1.09,4.09.21,9.68.52,16.57,1.76,3.02.54,5.45,1.13,7.5,1.61,6.18,1.47,11.22,2.99,14.75,4.13-1.03-.1-2.09-.19-3.18-.26-2.87-.19-5.59-.23-8.15-.16-6.25.12-14.39.52-23.85,1.65-5.56.66-15.83,1.92-27.69,4.98-8.8,2.27-22.08,5.47-36.81,14.16-15.6,9.21-29.56,22.12-42.45,39.8-2.14,2.93-5.9,7.7-5.68,11.32,5.31-6.75,15.26-17.47,31.04-25,8.2-3.92,15.83-5.94,21.91-7.03-3.4,1.34-8.03,3.51-13,6.98-2.89,2.02-8.21,6.08-13.41,12.58-2.31,2.89-11.08,17.45-12.01,18-3.77,2.24-11.32-1.15-14.25,7.75-3.2,9.75,4.1,12.32,4.04,15.03-.04,2.12-2.9,8.54-3.52,11.49-1.53,7.42-2.89,16.12-3.33,23.66-.15,2.66,1.09,11.02.62,12.07-1.12,2.48-6.95,4.08-9.51,6.05-18.08,13.91-9.28,44.03,12.69,47.16,3.26.47,12.49-.9,13.06-.57.86.51,8.94,14.22,10.76,16.75,1.3,1.8,4.04,4.71,6.47,7.43,2.03,2.28,3.86,4.42,4.43,5.68,1.29,2.79.16,7.15.61,10.39.25,1.85.96,3.85,2,5.8,2.5,4.68,7.16,8.84,11.18,10.3.68.24,1.49.56,2.63.79,4.28.86,6.82-.63,14.04-1.69.36-.05,2.2-.32,3.34-.41,8.19-.63,14.12,6.77,19.51,8.51,20.92,6.74,39.94,6.95,61.22,1.8,4.65-1.12,9-4.03,13.99-3.5-11.49,8.5-43.39,15.32-43,16.98,2.66-.06,5.35.11,8,.01,0,0,10.73-.36,22.01-2.85,10.57-2.34,33.25-11.31,59.38-29.3.01,0,.02,0,.03-.02,4.04-3.45,9.84-7.83,12.66-10.83.88-.94,7.56-7.56,7.98-7.97Z"/>
  <path class="cls-1" d="M302.1,186.98c-.11,3.63-1.07,6.96-2.6,10.18,0,.02-.02.02-.02.04-2.99,5.01-5.75,9-7.81,11.8-4.16,5.69-7.6,9.54-13.36,16-4.4,4.94-6.21,6.68-7.38,7.78-3.64,3.4-6.97,5.92-9.41,7.64,2.55-3.81,5.23-8.5,7.57-14.1,1.28-3.06,2.28-5.98,3.07-8.68-.79,1.06-5.48,6.25-6.2,7.05-2.3,2.51-3.36,3.86-5.44,6.18-4.99,5.56-10.69,11.63-16.86,17.62-1.51,1.47-3.04,2.92-4.61,4.37-18.27,16.94-39.96,32.05-59.59,31.6-10.76-.25-27.64-9.4-32.05-19.42-1.14-2.59-.45-5.13-.45-5.13.2-1.19.58-2.15.89-2.8.11.78.34,1.95.83,3.3,3.09,8.47,12.25,12.15,15.7,13.27,5.74,1.87,12.08,2.38,17.64,1.85l-.65-.38-3.48-2.09-13.56-8.11c6.29,2.42,11.1,3.88,17.25,3.74,1.48-.02,3.04-.16,4.73-.38,8.81-1.19,20.35-9.35,32.32-20.5,5.53-5.16,11.16-10.94,16.65-16.98,1.16-1.28,2.32-2.56,3.46-3.86,4.25-4.79,8.38-9.68,12.29-14.48,3.43-4.21,6.7-8.35,9.71-12.29,4.31-5.64,8.14-10.88,11.25-15.34h0c.93-1.34,1.78-2.59,2.58-3.77.7-1.06,1.36-2.04,1.95-2.95,1.62-1.87,3.46-3.5,5.57-4.8,2.28-1.44,4.87-2.49,7.83-3.04-1.1,1.52-2.72,2.37-3.8,3.95-1.7,2.5-4.24,9.76-4.42,12.7-.11,1.77.02,6.29,2.16,6.7,2.71.51,6.15-1.82,8.18-3.48,1.94-1.6,3.86-3.56,5.32-5.77,1.51-2.28,2.53-4.84,2.57-7.51.41.29.73.69.88,1.18,1.02,3.21,1.41,6.15,1.31,8.91Z"/>
  <line class="cls-1" x1="304.68" y1="129.28" x2="304.46" y2="129.17"/>
  <path class="cls-1" d="M382.44,78.73c-.02,2.1-.22,6.28-.22,6.28l-.03.03c-.18,3.19-.59,6.37-1.23,9.55-5.23,26.2-25.15,51.98-44.51,75.98,0,0,0,.01-.01.01-.1.12-.2.25-.3.37-3.96,4.39-7.97,8.67-11.96,12.81-2.43,2.53-9.34,9.2-9.13,8.74,10.6-14.13,20-29.34,25.95-46.02-1.26,1.28-2.46,2.94-3.51,4.44-3.62,5.17-4.05,6.39-7.32,10.73-1.07,1.42-3.32,4.29-6.55,7.59-2.2,2.24-4.22,4.02-5.82,5.35.35-.4.85-1.01,1.4-1.77,1.08-1.49,1.66-2.6,2.81-4.79,2.68-5.13,2.92-5.54,3.34-6.53.84-1.96,1.41-3.34,1.99-5.2.34-1.09.58-2.03.81-2.95.68-2.71.69-7.4.69-7.4-3.01,1.9-6.02,3.8-9.03,5.69-4.52-2.15-9.04-4.3-13.56-6.44-1.93-1.07-3.85-2.15-5.78-3.22.15-4.26.31-8.51.46-12.77v-.04l-.05-.59c-.15.07-.42.19-.74.34-2.44,1.15-6.45,3.08-9.96,6.82-.62.66-1.03,1.17-1.43,1.67-2.47,3.06-3.89,5.87-5.29,8.94-2.29,5.02-4.04,9.7-5.29,13.32-.36-3.79,0-6.85.39-8.93.43-2.29,1.02-4.02,1.62-5.78.37-1.09,1.37-3.88,3.15-7.48,1.42-2.86,3.52-6.58,6.56-10.69.69-.68,2.91-2.96,2.42-3.7-.44-.66-2.79.18-3.56.45-2.19.78-3.91,1.98-5.38,3.3-.65.58-1.89,1.76-4.28,5.02-1.2,1.65-2.76,3.91-4.41,6.73.6-1.9,1.47-4.78,2.51-8.55.21-.75.19-.68.24-.86.92-3.13,1.98-4.68,4.69-9.96.42-.81.47-.93.64-1.25,2.83-5.47,7.53-10.65,11.44-14.97,8.81-9.74,8.46-9.49,11.25-12.41,4.98-5.19,7.78-7.73,8.5-8.37,2.07-1.86,5.54-4.96,10.33-8.36,1.85-1.31,4.6-3.17,11.46-7.03,4.49-2.53,10.58-5.82,18.04-9.48,0,0,8.91-2.7,13.38-2.71.02,0,1.58-.04,1.94-.1-.23.16-.58.41-.98.71-4.23,3.14-9.45,7.01-12.6,13.32-1.06,2.13-3.44,7.08-2.33,12.92.4,2.12,1.17,3.65,1.53,4.29.06.11.12.21.14.24,1.1,1.86,6.73,4.19,11.46,2.98,6.45-1.65,9.44-9.43,12.07-16.25,1.91-4.97,2.72-9.32,3.09-12.24.07,0,.25.48.27.6.22,1.24.37,2.77.45,4.35.06.8.09,1.61.12,2.4.04,1.29.07,2.52.11,3.56.07,2.42.04,4.9.02,7.32Z"/>
  <path class="cls-1" d="M161.28,324.18c-3.24-.88-5.23-2.33-6.35-3.33-.61-.55-1.32-1.19-1.15-1.56.33-.74,3.69.67,6.15.66,8.51-.01,18.86-16.82,14.73-24.82-1.41-2.72-4.86-5.14-4.25-6.08.29-.44,1.32-.28,2.02-.12,1.34.3,3.32.93,5.32,2.35,5.29,3.76,6.26,9.92,6.44,11.32.98,7.44-2.44,14.78-8.06,18.82-2.83,2.04-5.86,2.73-6.32,2.84-3.77.88-6.91.32-8.54-.09Z"/>
  <polygon class="cls-1" points="225.51 152.64 210.08 154.65 208.08 170.08 206.07 154.65 190.64 152.64 206.07 150.64 208.08 135.21 210.08 150.64 225.51 152.64"/>
  <polygon class="cls-1" points="158.7 202.4 147.7 202.61 145.09 213.3 144.88 202.3 134.19 199.69 145.19 199.48 147.8 188.79 148.01 199.79 158.7 202.4"/>
  <polygon class="cls-1" points="311.96 279.07 296.53 281.07 294.52 296.5 292.51 281.07 277.08 279.07 292.51 277.06 294.52 261.63 296.53 277.06 311.96 279.07"/>
  <polygon class="cls-1" points="357.77 351.02 342.34 353.03 340.33 368.45 338.32 353.03 322.9 351.02 338.32 349.01 340.33 333.58 342.34 349.01 357.77 351.02"/>
  <polygon class="cls-1" points="96.61 340.25 81.24 342.65 79.63 358.13 77.23 342.75 61.75 341.14 77.12 338.74 78.74 323.27 81.14 338.64 96.61 340.25"/>
  <polygon class="cls-1" points="96.42 85.2 88.03 87.79 88.38 96.56 85.8 88.17 77.03 88.52 85.42 85.94 85.07 77.16 87.65 85.55 96.42 85.2"/>
  <polygon class="cls-1" points="125.91 360.96 117.52 363.54 117.87 372.32 115.29 363.93 106.52 364.28 114.91 361.7 114.56 352.92 117.14 361.31 125.91 360.96"/>
  <polygon class="cls-1" points="372.19 246.45 363.45 245.59 360.38 253.82 361.25 245.08 353.02 242.01 361.76 242.87 364.82 234.65 363.96 243.38 372.19 246.45"/>
  <polygon class="cls-1" points="301.94 67.44 293.27 68.84 292.41 77.57 291.01 68.91 282.27 68.05 290.94 66.65 291.8 57.91 293.2 66.57 301.94 67.44"/>
</svg>