<svg xmlns="http://www.w3.org/2000/svg" viewBox="0 0 548.16 574.8" opacity="0.1"><style>.cls-1 {fill: #fff;}</style><path class="cls-1" d="M223.31,92.98s6.48-2.59,7.67-2.98c89.49-30.17,185.59,15.12,216.28,104.36,35.69,103.81-34.92,212.18-142.83,223.84-1.93.21-4.77.45-6.7.51-.54.02-1.82.3-1.7-.5,2.79-.39,5.92-.92,8.74-1.59,51.68-12.25,93.64-48.53,111.48-98.72,4.2-11.82,7.32-24.85,7.94-37.4l-6.81,12.14c-13.76,24.43-39.32,38.45-62.78,52.16-.13.86,1.03.41,1.47.27,3.76-1.21,8.52-3.08,12.22-4.58,13.36-5.43,25.92-12.71,37.91-20.65.39.89-1.15,2.42-1.7,3.1-5.81,7.3-13.56,15.03-20.62,21.13-22.05,19.05-49.36,30.53-77.28,38.62-.1.84,1.66.53,2.15.47,12.11-1.39,31.35-6.7,42.43-11.81,4.96-2.29,9.7-5.77,14.94-7.37-.69.96-1.88,2.08-2.78,2.85-29.61,25.06-59.41,32.5-97.36,36.91-28.48,3.31-55.76,4.97-83.62-3.15-11.54-3.36-22.48-12.48-31.04-20.79-.47-.46-.91-.63-.73-1.43l33.24-5.4c7.78-2.34,15.53-1.17,20.73-8.54,3.99-5.66,3.08-15.15-1.01-20.54-2.63-3.47-20.56-13.53-25.01-14.8-5.56-1.58-13.44,2.31-18.81,4.44-7.69,3.05-15.1,6.79-22.57,10.3-.13-.12.6-1.21.84-1.45,5.52-5.53,15.45-12.75,21.92-17.57,5.31-3.96,10.96-7.82,16.45-11.6,4.77-3.29,14.57-9.54,14.57-9.54l-5.51-87.97-59.01-2.79-.69.75c-1.19,4.7-3.06,9.26-4.28,13.95-.93,3.58-3,12.58-3,12.58l3.38-27.61-62.42-2.62c-.1-.68,1.32-.75,1.81-.82,5.73-.87,53.7-1.82,62.54-3.22,1.43-3.95,2.37-8.09,3.79-12.04,10.06-28.02,49.46-72.43,49.46-72.43,0,0,.62-.47-.1-.53-1.63-.12-16.21-1.63-16.21-1.63l19.8-1.08s9.38-6.63,9.98-7.29c.41-.45.9-.78.93-1.47.46-4.59,1.21-16.06,1.21-16.06,0,0,1.68,13.69,1.92,14.86,7.72-5.22,24.48-13.43,24.48-13.43l2.17-37.42,2.15,35.59ZM348.67,132.42c-28.29-17.16-67.23-24-99.85-19.31-5.1.73-11.99,2.77-17.06,3.3-.13.63,50.84,3.84,50.84,3.84l-57.59,2.89-3.61,59.01-2.72-59.16s-5.3-.12-7.36.61c-5.16,1.73-10.77,5.36-15.63,7.88l3.93,71.72,126.2,6.53-125.78,5.74-5.77,86.15s1.15-.65,1.72-.96c4.68-2.47,10-5.98,14.72-8.69,47.85-27.53,103.72-50.67,156.17-68.54,6.69-2.28,17.02-6.34,23.54-7.67.38-.08,1.71-.2.9.44-32.06,15.53-62.95,34.14-89.03,58.54,3.45-1.12,7.13-3.01,10.4-4.71,7.74-4.03,15.13-8.7,23.03-12.49,10.38-4.98,21.3-8.91,31.85-13.5.3,1.24-.4.84-.9,1.24-5.75,4.68-12.62,8.46-18.48,13.23-10.27,8.37-20.2,20.27-28.79,30.46-.39.46-2.8,1.86-.07,1.61,2.04-.19,6.04-2.32,7.67-.95l20.29,23.61-.59,7.58c11.29-2.42,23.07-6.14,33.45-11.18,13.31-6.46,27.25-18.78,37.65-29.3,1.16-1.17,6.45-6.44,6.91-7.24.33-.57.39-.78.48-1.44.83-6.19-.39-14.03-.98-20.18-.52-5.43-.64-10.78-2.16-16.07-8.39,15.33-16.33,31.03-27.12,44.86l19.92-15.59.23.71c-6.45,7.44-12.61,15.2-19.91,21.86-12.28,11.21-23.51,19.15-41.18,15.23-.71-.16-1.31-.55-1.78-1.1,7.41-.71,13.63-6.68,17.67-12.56,2.08-3.03,4.91-8.09,3.83-11.81-.86-2.94-7.23-2.59-9.71-2.23-4.12.6-14.01,5-17.3,7.66-2.09,1.69-3.06,4.03-5.05,5.75,1.31-13.89,10.79-22.88,22.4-29.18,10.4-5.64,21.76-9.59,31.51-16.48,8.39-5.92,15.94-14.53,22.7-22.21-7.2-23.41-20.02-45.03-37.27-62.39l-26.36,1.22-2.67,40.28-2.12-39.63-42.47-3.43,42.38-2.1,1.04-20.26c-.84-.78-1.66-1.3-2.11-1.58ZM189.96,135.12c-.71-.16-.89.02-1.4.34-26.32,16.65-47.31,41.48-59.56,70.18l56.64-2.39,4.32-68.13ZM378.6,155.75c-6.76-6.57-15.14-14.41-23.37-19.1-.53-.3-.88-.5-1.61-.98l.98,18.64,24,1.43Z"/></svg>