<?xml version="1.0" encoding="UTF-8"?>
<svg xmlns="http://www.w3.org/2000/svg" version="1.1" xmlns:serif="http://www.serif.com/" viewBox="0 0 1920 1080">
<style> .st0, .st1 { fill: #fff; } .st2 { fill: none; } .st1 { font-family: Northura-SemiExpanded, Northura; font-size: 393px; } .st3 {fill: #1f1f1f; stroke: #600; stroke-miterlimit: 10; stroke-width: 20px;} .st4 {fill: #323232;}</style>
  <g id="type">
    <rect class="st2" x="2.4" y="110.3" width="1917.5" height="857.3"/>
    <g><path class="st0" d="M86.5,183.3h45.7v238.3h43.7v-238.3h45.7v-39.7H86.5v39.7Z"/><path class="st0" d="M306.2,306.5h19.9v51.2c0,19.9-8.7,27-22.6,27s-22.6-7.2-22.6-27v-150.2c0-19.9,8.7-27.4,22.6-27.4s22.6,7.5,22.6,27.4v29.8h41.3v-27c0-44.5-22.2-69.9-65.1-69.9s-65.1,25.4-65.1,69.9v144.6c0,44.5,22.2,69.9,65.1,69.9s65.1-25.4,65.1-69.9v-88.2h-61.2v39.7Z"/><path class="st4" d="M453.2,141.6c-40.1.4-57.2,28.2-57.2,68.7,0,76.7,106.5,74.3,106.5,144.6s-13.1,60.4-49.7,60.4-49.7-26.6-49.7-60.4v-13.9h-8.3v13.5c0,38.5,15.9,69.1,58,69.1s58.4-30.6,58.4-69.1c0-75.5-106.5-73.5-106.5-144.6s12.3-60.4,48.9-60.4,48.5,27.8,48.5,60.8v5.6h8.7v-5.2c0-38.1-15.5-69.1-57.6-69.1Z"/><path class="st4" d="M602.9,421.7V151.9h60.8v-8.3h-129.9v8.3h60.4v269.7h8.7Z"/><path class="st4" d="M794.8,356.1l16.3,65.5h8.7l-68.7-278.5h-12.3l-67.1,278.5h7.9l16.3-65.5h98.9ZM744.7,153.5l48.5,194.6h-95.7l47.3-194.6Z"/><path class="st4" d="M896.1,421.7V151.9h60.8v-8.3h-129.9v8.3h60.4v269.7h8.7Z"/><rect class="st4" x="981.1" y="143.6" width="8.7" height="278.1"/><path class="st4" d="M1021.2,353.3c0,38.9,16.7,70.3,58.8,70.3s59.6-31.4,59.6-70.3v-141.4c0-38.9-16.7-70.3-59.6-70.3s-58.8,31.4-58.8,70.3v141.4ZM1029.9,211.5c0-34.2,13.1-62,50.1-62s50.8,27.8,50.8,62v142.2c0,34.2-13.5,62-50.8,62s-50.1-27.8-50.1-62v-142.2Z"/><path class="st4" d="M1179.3,156.3l99.3,265.4h10.7V143.6h-8.3v260.2l-97.7-260.2h-12.3v278.1h8.3V156.3Z"/></g>
    <g><path class="st0" d="M144.8,763.2h66.2v158.9h59.3v-370.8h-59.3v158.9h-66.2v-158.9h-58.3v370.8h58.3v-158.9Z"/><path class="st0" d="M441.9,551.4h-85.3l-59.3,370.8h53.5l10.1-67.3h71.5l10.1,67.3h58.8l-59.3-370.8ZM396.3,617l28.1,187.5h-56.1l28.1-187.5Z"/><path class="st0" d="M652.7,922.1h59.9v-370.8h-51.9v221.9l-59.9-221.9h-73.1v370.8h52.4v-268.5l72.6,268.5Z"/><path class="st0" d="M754.4,922.1h92.2c58.3,0,86.9-32.3,86.9-91.6v-187.5c0-59.3-28.6-91.6-86.9-91.6h-92.2v370.8ZM845.5,604.3c18.5,0,29.7,9.5,29.7,36v192.8c0,26.5-11.1,36-29.7,36h-32.8v-264.8h32.8Z"/><path class="st0" d="M1058.4,551.4h-87.9v370.8h91.6c58.3,0,88.5-30.7,88.5-87.9v-30.2c0-39.2-12.2-67.3-43.4-79.4,26-12.2,37.6-36.5,37.6-74.7v-13.2c0-57.2-26-85.3-86.3-85.3h0ZM1054.7,755.3c26.5,0,37.6,10.6,37.6,45v32.3c0,27.5-10.6,36.5-30.2,36.5h-33.4v-113.9h26ZM1056.8,604.3c20.7,0,29.7,11.7,29.7,38.1v20.7c0,29.7-13.2,39.2-35,39.2h-22.8v-98h28.1Z"/><path class="st0" d="M1239,636.6c0-26.5,11.7-36.5,30.2-36.5s30.2,10.1,30.2,36.5v200.2c0,26.5-11.7,36.5-30.2,36.5s-30.2-10.1-30.2-36.5v-200.2ZM1180.8,833.1c0,59.3,31.2,93.2,88.5,93.2s88.5-33.9,88.5-93.2v-192.8c0-59.3-31.2-93.2-88.5-93.2s-88.5,33.9-88.5,93.2v192.8Z"/><path class="st0" d="M1448.8,636.6c0-26.5,11.7-36.5,30.2-36.5s30.2,10.1,30.2,36.5v200.2c0,26.5-11.7,36.5-30.2,36.5s-30.2-10.1-30.2-36.5v-200.2ZM1390.5,833.1c0,59.3,31.2,93.2,88.5,93.2s88.5-33.9,88.5-93.2v-192.8c0-59.3-31.2-93.2-88.5-93.2s-88.5,33.9-88.5,93.2v192.8Z"/><path class="st0" d="M1737.9,922.1h59.9l-81-205.5,81-165.3h-58.3l-76.3,161.5v-161.5h-58.3v370.8h58.3v-113.9l18-33.9,56.7,147.8Z"/></g></g>
  <line class="st3" x1="383" y1="393" x2="1326.5" y2="174.9"/><text class="st1" transform="translate(419.3 404.7) scale(.7 1)"><tspan x="0" y="0">SHIPTEST</tspan></text>
</svg>