<!-- icon666.com - MILLIONS OF FREE VECTOR ICONS --><svg id="Layer_1" enable-background="new 0 0 64 64" viewBox="0 0 64 64" xmlns="http://www.w3.org/2000/svg"><g id="Bulletproof"><path d="m58 39.1h-5.6c-1.7 0-3.1 1.4-3.1 3.1v2.4c0 1.7 1.4 3.1 3.1 3.1h5.6c1.7 0 3.1-1.4 3.1-3.1v-2.4c0-1.7-1.4-3.1-3.1-3.1z" fill="#000000" style="fill: rgb(255, 255, 255);"></path><path d="m14.7 44.6v-2.4c0-1.7-1.4-3.1-3.1-3.1h-5.6c-1.7 0-3.1 1.4-3.1 3.1v2.4c0 1.7 1.4 3.1 3.1 3.1h5.6c1.7 0 3.1-1.4 3.1-3.1z" fill="#000000" style="fill: rgb(255, 255, 255);"></path><path d="m52.4 36.3h5.2v-5.9c0-1-.3-2-.9-2.7l-6-7.6c-.6-.8-.9-1.7-.9-2.7v-8.9h-9.9l-.3.7c-.6 1.5-2 2.4-3.5 2.4h-8c-1.6 0-3-1-3.5-2.4l-.3-.7h-9.9v8.9c0 1-.3 2-.9 2.7l-6 7.6c-.6.8-.9 1.7-.9 2.7v5.9h5.2c3.3 0 5.9 2.6 5.9 5.9v2.4c0 3.3-2.6 5.9-5.9 5.9h-5.4v8.1c0 1.4 1.1 2.5 2.5 2.5h46.2c1.4 0 2.5-1.1 2.5-2.5v-8.1h-5.2c-3.3 0-5.9-2.6-5.9-5.9v-2.4c0-3.2 2.6-5.9 5.9-5.9zm-10.3 16.1c0 .9-.7 1.7-1.7 1.7h-16.8c-.9 0-1.7-.7-1.7-1.7v-4.4h20.2zm0-8.6h-20.2v-4.7h20.2zm0-8.9h-20.2v-4.4c0-.9.7-1.7 1.7-1.7h16.9c.9 0 1.7.7 1.7 1.7v4.4z" fill="#000000" style="fill: rgb(255, 255, 255);"></path><path d="m49.7 4.8c0-1.1-.9-1.9-1.9-1.9h-3.9c-1.1 0-2.2.7-2.6 1.8l-.7 1.7h9.1z" fill="#000000" style="fill: rgb(255, 255, 255);"></path><path d="m22.7 4.6c-.4-1.1-1.4-1.8-2.6-1.8h-3.9c-1.1 0-1.9.9-1.9 1.9v1.5h9.1z" fill="#000000" style="fill: rgb(255, 255, 255);"></path></g></svg>